<?xml version="1.0" encoding="UTF-8"?>
<svg xmlns="http://www.w3.org/2000/svg" style="display: none;">
  <symbol id="jen-sidebar-open-icon" viewBox="6 6 36 36">
<path fill="currentColor" d="M6.823 7.823a.25.25 0 0 1 0 .354l-2.396 2.396A.25.25 0 0 1 4 10.396V5.604a.25.25 0 0 1 .427-.177Z"></path>
<path d="M1.75 0h12.5C15.216 0 16 .784 16 1.75v12.5A1.75 1.75 0 0 1 14.25 16H1.75A1.75 1.75 0 0 1 0 14.25V1.75C0 .784.784 0 1.75 0ZM1.5 1.75v12.5c0 .138.112.25.25.25H9.5v-13H1.75a.25.25 0 0 0-.25.25ZM11 14.5h3.25a.25.25 0 0 0 .25-.25V1.75a.25.25 0 0 0-.25-.25H11Z"></path>
  </symbol>

  <symbol id="jen-sidebar-close-icon" viewBox="6 6 36 36">
<path fill="currentColor" d="m4.177 7.823 2.396-2.396A.25.25 0 0 1 7 5.604v4.792a.25.25 0 0 1-.427.177L4.177 8.177a.25.25 0 0 1 0-.354Z"></path>
<path d="M0 1.75C0 .784.784 0 1.75 0h12.5C15.216 0 16 .784 16 1.75v12.5A1.75 1.75 0 0 1 14.25 16H1.75A1.75 1.75 0 0 1 0 14.25Zm1.75-.25a.25.25 0 0 0-.25.25v12.5c0 .138.112.25.25.25H9.5v-13Zm12.5 13a.25.25 0 0 0 .25-.25V1.75a.25.25 0 0 0-.25-.25H11v13Z"></path>
  </symbol>
</svg>




